{"title":"The.Clinic.2010.720p.BRRip.x264.Feel-Free","uid":6361182,"size":2394568792,"categoryP":"video","categoryS":"hd___movies","magnet":"?xt=urn:btih:61809e17d80b1e26cc56893d2c52510adb5deb93&amp;dn=The.Clinic.2010.720p.BRRip.x264.Feel-Free&amp;tr=udp%3A%2F%2Ftracker.openbittorrent.com%3A80&amp;tr=udp%3A%2F%2Fopen.demonii.com%3A1337&amp;tr=udp%3A%2F%2Ftracker.coppersurfer.tk%3A6969&amp;tr=udp%3A%2F%2Fexodus.desync.com%3A6969","seeders":1,"leechers":0,"uploader":"qwersd","files":-1,"time":1304336078,"description":"Genre: Horror | Thriller\nLanguage:English\nIMDb:http://www.imdb.com/title/tt1345772/\nSource:BluRay.DTS.x264.DNL\nSubtitles:Romana\n\nFormat : MPEG-4\nFormat profile : Base Media\nCodec ID : isom\nFile size : 2.22 GiB\nDuration : 1h 33mn\nOverall bit rate : 3 414 Kbps\n\nVideo\nID : 1\nFormat : AVC\nFormat/Info : Advanced Video Codec\nFormat profile : &lt;a class=&quot;__cf_email__&quot; href=&quot;/cdn-cgi/l/email-protection&quot; data-cfemail=&quot;8fc7e6e8e7cfc3bba1be&quot;&gt;[email&amp;#160;protected]&lt;/a&gt;&lt;script cf-hash='f9e31' type=&quot;text/javascript&quot;&gt;\n/* &lt;![CDATA[ */!function(){try{var t=&quot;currentScript&quot;in document?document.currentScript:function(){for(var t=document.getElementsByTagName(&quot;script&quot;),e=t.length;e--;)if(t[e].getAttribute(&quot;cf-hash&quot;))return t[e]}();if(t&amp;&amp;t.previousSibling){var e,r,n,i,c=t.previousSibling,a=c.getAttribute(&quot;data-cfemail&quot;);if(a){for(e=&quot;&quot;,r=parseInt(a.substr(0,2),16),n=2;a.length-n;n+=2)i=parseInt(a.substr(n,2),16)^r,e+=String.fromCharCode(i);e=document.createTextNode(e),c.parentNode.replaceChild(e,c)}}}catch(u){}}();/* ]]&gt; */&lt;/script&gt;\nFormat settings, CABAC : Yes\nFormat settings, ReFrames : 3 frames\nCodec ID : avc1\nCodec ID/Info : Advanced Video Coding\nDuration : 1h 33mn\nBit rate mode : Variable\nBit rate : 3 000 Kbps\nMaximum bit rate : 16.5 Mbps\nWidth : 1 280 pixels\nHeight : 544 pixels\nDisplay aspect ratio : 2.35:1\nFrame rate mode : Constant\nFrame rate : 23.976 fps\nColor space : YUV\nChroma subsampling : 4:2:0\nBit depth : 8 bits\nScan type : Progressive\nBits/(Pixel*Frame) : 0.180\nStream size : 1.93 GiB (87%)\nWriting library : x264\n\nAudio\nID : 2\nFormat : AAC\nFormat/Info : Advanced Audio Codec\nFormat version : Version 4\nFormat profile : LC\nFormat settings, SBR : No\nCodec ID : 40\nDuration : 1h 33mn\nBit rate mode : Variable\nBit rate : 447 Kbps\nMaximum bit rate : 505 Kbps\nChannel(s) : 6 channels\nChannel positions : Front: L C R, Side: L R, LFE\nSampling rate : 48.0 KHz\nStream size : 298 MiB (13%)\n\n\nPlot:\nWhile traveling across country with her fiancÃŽËœ, Beth wakes alone in an isolated clinic to a mother's worst nightmare. Just how far will she go to save her child?\n\n\nScreens:\n &lt;a href=&quot;\nhttp://www.pix2links.com/images/61601564187775275209.png&quot; rel=&quot;nofollow&quot; target=&quot;_NEW&quot;&gt;\nhttp://www.pix2links.com/images/61601564187775275209.png&lt;/a&gt; &lt;a href=&quot;\nhttp://www.pix2links.com/images/80707974320997122954.png&quot; rel=&quot;nofollow&quot; target=&quot;_NEW&quot;&gt;\nhttp://www.pix2links.com/images/80707974320997122954.png&lt;/a&gt; &lt;a href=&quot;\nhttp://www.pix2links.com/images/10921468631235596449.png&quot; rel=&quot;nofollow&quot; target=&quot;_NEW&quot;&gt;\nhttp://www.pix2links.com/images/10921468631235596449.png&lt;/a&gt; &lt;a href=&quot;\nhttp://www.pix2links.com/images/74464816179141257764.png&quot; rel=&quot;nofollow&quot; target=&quot;_NEW&quot;&gt;\nhttp://www.pix2links.com/images/74464816179141257764.png&lt;/a&gt; &lt;a href=&quot;\nhttp://www.pix2links.com/images/56176345670117302756.png&quot; rel=&quot;nofollow&quot; target=&quot;_NEW&quot;&gt;\nhttp://www.pix2links.com/images/56176345670117302756.png&lt;/a&gt; &lt;a href=&quot;\nhttp://www.pix2links.com/images/51052956758114037474.png&quot; rel=&quot;nofollow&quot; target=&quot;_NEW&quot;&gt;\nhttp://www.pix2links.com/images/51052956758114037474.png&lt;/a&gt;\n\nGreets:\n\nINK,CRYS,IMAGINE,LKRG,FXG,3Li,FLAWL3SS,TA,iLLUSiON,ViSiON,DTRG SAFCuk009,LU,TheFalcon007,MYSTiC,PrisM,Noir,WBZ,LAP,Rx,Kingdom,SAFCuk009+Fabreezy,HDLiTE,TWiZTED,ExtraTorrentRG.ELEKTRI4KA,MAGNAT,CM8\nAnd to all the other p2p grps past and present.","torrent":{"xt":"urn:btih:61809e17d80b1e26cc56893d2c52510adb5deb93","amp;dn":"The.Clinic.2010.720p.BRRip.x264.Feel-Free","amp;tr":["udp%3A%2F%2Ftracker.openbittorrent.com%3A80","udp%3A%2F%2Fopen.demonii.com%3A1337","udp%3A%2F%2Ftracker.coppersurfer.tk%3A6969","udp%3A%2F%2Fexodus.desync.com%3A6969"],"infoHash":"61809e17d80b1e26cc56893d2c52510adb5deb93","infoHashBuffer":{"type":"Buffer","data":[97,128,158,23,216,11,30,38,204,86,137,61,44,82,81,10,219,93,235,147]},"announce":[],"urlList":[]}}